<svg xmlns="http://www.w3.org/2000/svg" viewBox="0 0 200 200"><title>Artboard 4 copy</title><g id="Embrace_Autism_logo" data-name="Embrace Autism logo"><path d="M110.25,41.25c-17.7,0-29.3-14-49.36-14-12.86,0-18.55,7.6-18.55,15.05C74.19,42.34,100,68.67,100,100c0-11.92,14.4-57.66,57.66-57.66,0-10.67-2.46-18.57-10.79-18.57C131.45,23.77,125.55,41.25,110.25,41.25Z" style="fill:#fff"/><path d="M89.74,158.75c17.71,0,29.3,14,49.37,14,12.85,0,18.55-7.6,18.55-15.05C125.81,157.66,100,131.33,100,100c0,11.92-14.4,57.66-57.66,57.66,0,10.67,2.46,18.57,10.78,18.57C68.55,176.23,74.45,158.75,89.74,158.75Z" style="fill:#fff"/><circle cx="106.25" cy="15.37" r="15.37" style="fill:#fff"/><circle cx="93.75" cy="184.63" r="15.37" style="fill:#fff"/><path d="M158.75,110.26c0-17.71,14-29.3,14-49.37,0-12.86-7.6-18.55-15.05-18.55C157.66,74.19,131.33,100,100,100c11.92,0,57.66,14.4,57.66,57.66,10.67,0,18.57-2.46,18.57-10.78C176.23,131.45,158.75,125.55,158.75,110.26Z" style="fill:#fff"/><path d="M41.24,89.74c0,17.71-14,29.3-14,49.37,0,12.86,7.6,18.55,15.05,18.55C42.34,125.81,68.67,100,100,100c-11.92,0-57.66-14.4-57.66-57.66-10.67,0-18.57,2.46-18.57,10.78C23.77,68.55,41.24,74.45,41.24,89.74Z" style="fill:#fff"/><circle cx="184.63" cy="106.25" r="15.37" style="fill:#fff"/><circle cx="15.37" cy="93.75" r="15.37" style="fill:#fff"/></g></svg>